<svg width="3331" height="902" viewBox="0 0 3331 902" fill="none" xmlns="http://www.w3.org/2000/svg"
    transform="scale(0.8)">
    <g id="Asset 2 1" clip-path="url(#clip0_0_1)">
        <g id="Layer 2">
            <g id="Layer 1">
                <path id="Vector"
                    d="M249.3 19.7999C251.402 13.9857 255.249 8.96294 260.315 5.41872C265.381 1.87449 271.418 -0.018086 277.6 -0.000117368H3300.1C3304.93 -0.00391485 3309.69 1.15776 3313.97 3.38622C3318.25 5.61468 3321.94 8.84408 3324.7 12.8001C3327.47 16.7561 3329.24 21.3218 3329.87 26.1094C3330.5 30.897 3329.96 35.765 3328.3 40.2999L3090.5 690.3C3088.39 696.079 3084.55 701.069 3079.5 704.593C3074.46 708.117 3068.45 710.005 3062.3 710H42.7001C37.8838 709.998 33.1388 708.836 28.8662 706.613C24.5937 704.39 20.9191 701.171 18.1532 697.228C15.3873 693.285 13.6113 688.735 12.9755 683.96C12.3396 679.186 12.8626 674.329 14.5001 669.8L249.3 19.7999Z"
                    fill="#1C1C1C" />
                <path id="Vector_2"
                    d="M0 769C0 761.044 3.16071 753.413 8.7868 747.787C14.4129 742.161 22.0435 739 30 739H3031C3038.96 739 3046.59 742.161 3052.21 747.787C3057.84 753.413 3061 761.044 3061 769V872C3061 879.956 3057.84 887.587 3052.21 893.213C3046.59 898.839 3038.96 902 3031 902H30C22.0435 902 14.4129 898.839 8.7868 893.213C3.16071 887.587 0 879.956 0 872L0 769Z"
                    fill="#1C1C1C" />
                <path id="Vector_3"
                    d="M2890 746H3025C3032.96 746 3040.59 749.161 3046.21 754.787C3051.84 760.413 3055 768.044 3055 776V864C3055 871.956 3051.84 879.587 3046.21 885.213C3040.59 890.839 3032.96 894 3025 894H2890V746Z"
                    fill="#42D70E" />
                <path id="Vector_4"
                    d="M2490 761C2490 757.022 2491.58 753.206 2494.39 750.393C2497.21 747.58 2501.02 746 2505 746H2890V894H2505C2501.02 894 2497.21 892.42 2494.39 889.607C2491.58 886.794 2490 882.978 2490 879V761Z"
                    fill="white" />
                <path id="Vector_5"
                    d="M2273.6 14.2999C2273.95 13.3335 2274.59 12.4983 2275.43 11.9078C2276.27 11.3173 2277.27 11.0003 2278.3 10.9999H2828.8C2829.61 10.9941 2830.42 11.1876 2831.14 11.5636C2831.86 11.9395 2832.49 12.4865 2832.95 13.1569C2833.41 13.8272 2833.7 14.6007 2833.8 15.4099C2833.9 16.2191 2833.79 17.0396 2833.5 17.7999L2576.4 698.8C2576.03 699.747 2575.39 700.561 2574.55 701.133C2573.71 701.705 2572.72 702.007 2571.7 702H2024.2C2023.4 702 2022.61 701.806 2021.89 701.435C2021.18 701.065 2020.57 700.528 2020.11 699.871C2019.65 699.214 2019.35 698.456 2019.25 697.66C2019.14 696.864 2019.23 696.055 2019.5 695.3L2273.6 14.2999Z"
                    fill="url(#paint0_linear_0_1)" />
                <path id="Vector_6" d="M1186.7 770L1187 870" stroke="#C2C2C2" stroke-width="5" stroke-linecap="round" />
                <path id="Vector_7" d="M1816.7 770L1817 870" stroke="#C2C2C2" stroke-width="5" stroke-linecap="round" />
            </g>
            <g id="Recognition_TEXT_DETECTION">
                <g id="EXT">
                    <path id="Vector_8"
                        d="M2905.43 846L2913.88 795.14H2948.17L2946.68 804H2923.15L2921.15 816.13H2942.92L2941.43 824.99H2919.66L2917.66 837.13H2941.29L2939.8 846H2905.43Z"
                        fill="white" />
                    <path id="Vector_9"
                        d="M2966.49 795.13L2973.87 812.46H2974.26L2987.46 795.13H3000L2980.29 820.56L2991.86 846H2979.73L2972.18 828.64H2971.78L2958.46 846H2945.88L2966.09 820.57L2954.63 795.14L2966.49 795.13Z"
                        fill="white" />
                    <path id="Vector_10"
                        d="M3003.31 804L3004.8 795.14H3046.6L3045.11 804H3029.53L3022.53 846H3011.9L3018.85 804H3003.31Z"
                        fill="white" />
                </g>
            </g>
        </g>
        <text id="homescore" transform="translate(2450.35 219.35)" style={{ isolation: "isolate" , fontSize: 30,
            fill: "#fff" , fontFamily: "xxBold" , fontVariant: "small-caps" , fontWeight: "900" , textAlign: "center" ,
            textAnchor: "middle" , }} ">11</text>
        <text id=" awayscore" transform="translate(2350.66 494.39)" style={{ isolation: "isolate" , fontSize: 30,
            fill: "#fff" , fontFamily: "xxBold" , fontVariant: "small-caps" , fontWeight: "900" , textAlign: "center" ,
            textAnchor: "middle" , }} ">o</text>
        <text id=" homepoints" transform="translate(2985.6 219.35)" style={{ isolation: "isolate" , fontSize: 30,
            fill: "#fff" , fontFamily: "xxBold" , fontVariant: "small-caps" , fontWeight: "900" , textAlign: "center" ,
            textAnchor: "middle" , }} ">o</text>
        <text id=" awaypoints" transform="translate(2873.26 494.39)" style={{ isolation: "isolate" , fontSize: 30,
            fill: "#fff" , fontFamily: "xxBold" , fontVariant: "small-caps" , fontWeight: "900" , textAlign: "center" ,
            textAnchor: "middle" , }} ">o</text>
        <text id=" homeplayer" transform="translate(1115.72 218.98)" style={{ isolation: "isolate" , fontSize: 30,
            fill: "#fff" , fontFamily: "xxBold" , fontVariant: "small-caps" , fontWeight: "900" , textAlign: "center" ,
            textAnchor: "middle" , }} ">o</text>
        <text id=" awayplayre" transform="translate(1016.03 494.02)" style={{ isolation: "isolate" , fontSize: 30,
            fill: "#fff" , fontFamily: "xxBold" , fontVariant: "small-caps" , fontWeight: "900" , textAlign: "center" ,
            textAnchor: "middle" , }} ">o</text>
        <text id=" tournament" transform="translate(578.41 846)" style={{ isolation: "isolate" , fontSize: 30,
            fill: "#fff" , fontFamily: "xxBold" , fontVariant: "small-caps" , fontWeight: "900" , textAlign: "center" ,
            textAnchor: "middle" , }} ">o</text>
        <text id=" race" transform="translate(1470.89 846)" style={{ isolation: "isolate" , fontSize: 30, fill: "#fff"
            , fontFamily: "xxBold" , fontVariant: "small-caps" , fontWeight: "900" , textAlign: "center" ,
            textAnchor: "middle" , }} ">o</text>
        <text id=" timer" transform="translate(2135.51 846)" style={{ isolation: "isolate" , fontSize: 30, fill: "#fff"
            , fontFamily: "xxBold" , fontVariant: "small-caps" , fontWeight: "900" , textAlign: "center" ,
            textAnchor: "middle" , }} ">o</text>
    </g>
    <defs>
        <linearGradient id=" paint0_linear_0_1" x1="2912.84" y1="49.0399" x2="1974.34" y2="640.54"
            gradientUnits="userSpaceOnUse">
            <stop offset="0.24" stop-color="#F8F5F5" />
            <stop offset="0.77" stop-color="#BBBBBB" />
            </linearGradient>
            <clipPath id="clip0_0_1">
                <rect width="3330.13" height="902" fill="white" />
            </clipPath>
            </defs>
</svg>